Coordinates
version=1
nRows=8
nColumns=63
inDegrees=yes

Units are S.I. units (second, meters, Newtons, ...)
If the header above contains a line with 'inDegrees', this indicates whether rotational values are in degrees (yes) or radians (no).

endheader
time	pelvis_tilt	pelvis_list	pelvis_rotation	pelvis_tx	pelvis_ty	pelvis_tz	hip_flexion_r	hip_adduction_r	hip_rotation_r	knee_angle_r	knee_angle_r_beta	ankle_angle_r	subtalar_angle_r	mtp_angle_r	hip_flexion_l	hip_adduction_l	hip_rotation_l	knee_angle_l	knee_angle_l_beta	ankle_angle_l	subtalar_angle_l	mtp_angle_l	L5_S1_Flex_Ext	L5_S1_Lat_Bending	L5_S1_axial_rotation	L4_L5_Flex_Ext	L4_L5_Lat_Bending	L4_L5_axial_rotation	L3_L4_Flex_Ext	L3_L4_Lat_Bending	L3_L4_axial_rotation	L2_L3_Flex_Ext	L2_L3_Lat_Bending	L2_L3_axial_rotation	L1_L2_Flex_Ext	L1_L2_Lat_Bending	L1_L2_axial_rotation	L1_T12_Flex_Ext	L1_T12_Lat_Bending	L1_T12_axial_rotation	Abs_r3	Abs_r2	Abs_r1	Abs_t1	Abs_t2	neck_flexion	neck_bending	neck_rotation	arm_flex_r	arm_add_r	arm_rot_r	elbow_flex_r	pro_sup_r	wrist_flex_r	wrist_dev_r	arm_flex_l	arm_add_l	arm_rot_l	elbow_flex_l	pro_sup_l	wrist_flex_l	wrist_dev_l
1.620690	5.481285	1.973901	97.469826	0.134611	0.831154	0.857007	3.308982	2.115475	-8.712261	10.945213	0.191030	34.423978	16.541711	0.000000	5.304905	-1.794853	2.577638	14.918619	0.260379	32.312376	0.179191	0.000000	-0.069874	0.207189	0.297801	-0.129763	0.275562	0.316414	-0.114796	0.503760	0.316414	-0.079859	0.503760	0.260576	-0.064885	0.422500	0.241963	-0.039926	0.320936	0.223351	-0.499103	2.343766	1.656280	0.000000	0.000000	10.124456	5.257412	-4.755337	9.254677	-19.587350	1.864437	83.324958	74.838156	-4.972963	7.285739	21.266333	-9.175310	139.488815	0.801544	1.289072	-0.907677	-17.232969
1.637931	5.592580	2.043525	97.453476	0.133510	0.831164	0.856575	3.281789	2.160848	-9.052496	11.110611	0.193917	34.431216	16.774201	0.000000	5.238422	-1.795041	3.388164	14.890286	0.259885	32.264125	-0.417794	0.000000	-0.059162	0.238282	0.333009	-0.109869	0.316915	0.353822	-0.097197	0.579358	0.353822	-0.067616	0.579358	0.291383	-0.054938	0.485904	0.270570	-0.033805	0.369099	0.249757	-0.422586	2.695492	1.852097	0.000000	0.000000	9.734514	4.561332	-5.783090	9.975939	-19.810347	4.714863	78.879672	75.102728	-5.526559	5.703850	21.441922	-8.138138	141.134461	0.594855	1.210956	-0.611385	-17.672756
1.655172	5.787046	2.131339	97.386124	0.132042	0.831256	0.856578	3.267285	2.272660	-9.377711	11.270011	0.196699	34.370647	17.030584	0.000000	5.173125	-1.846787	4.325604	14.848968	0.259163	32.130742	-1.247504	0.000000	-0.051867	0.285197	0.406169	-0.096321	0.379312	0.431555	-0.085212	0.693428	0.431555	-0.059278	0.693428	0.355398	-0.048163	0.581574	0.330012	-0.029637	0.441770	0.304627	-0.370478	3.226207	2.258990	0.000000	0.000000	9.337010	3.676019	-6.905826	10.769996	-20.173888	7.618959	74.479430	75.820767	-6.104873	4.567121	22.283386	-6.194275	147.747290	-1.764821	-2.271136	1.242565	-19.777290
1.672414	5.937481	2.160401	97.307682	0.130779	0.831098	0.856797	3.333140	2.341386	-9.670501	11.445945	0.199769	34.347092	17.267667	0.000000	5.186399	-1.861610	5.212929	14.833594	0.258895	31.990740	-2.062295	0.000000	-0.044530	0.325720	0.452966	-0.082697	0.433208	0.481276	-0.073158	0.791956	0.481276	-0.050893	0.791956	0.396345	-0.041351	0.664209	0.368035	-0.025444	0.504541	0.339724	-0.318074	3.684611	2.519261	0.000000	0.000000	9.124600	2.822364	-7.690520	11.818778	-20.351612	11.059541	70.068148	77.018008	-6.729784	3.893022	22.798071	-4.687917	150.978499	-2.768048	-3.696107	2.648671	-21.136280
1.689655	6.049266	2.137054	97.209876	0.129701	0.830707	0.857184	3.460125	2.374689	-9.907708	11.616054	0.202738	34.349408	17.473037	0.000000	5.257986	-1.842068	6.047897	14.829936	0.258831	31.841669	-2.893440	0.000000	-0.038044	0.361197	0.472253	-0.070651	0.480392	0.501769	-0.062502	0.878214	0.501769	-0.043480	0.878214	0.413221	-0.035327	0.736552	0.383706	-0.021738	0.559494	0.354190	-0.271742	4.085929	2.626530	0.000000	0.000000	9.097422	2.027067	-8.081251	13.081777	-20.322468	15.143456	65.769005	78.695174	-7.412339	3.686705	22.982510	-3.556453	151.037123	-2.573910	-3.202803	3.734029	-21.779182
1.706897	6.132923	2.061697	97.088466	0.128837	0.830101	0.857715	3.640115	2.386305	-10.083944	11.762666	0.205297	34.367171	17.645939	0.000000	5.390730	-1.805434	6.785114	14.848846	0.259161	31.702936	-3.691899	0.000000	-0.032052	0.392258	0.470225	-0.059525	0.521704	0.499615	-0.052659	0.953737	0.499615	-0.036633	0.953737	0.411447	-0.029764	0.799893	0.382058	-0.018315	0.607608	0.352669	-0.228947	4.437306	2.615253	0.000000	0.000000	9.231079	1.338277	-8.100195	14.450245	-20.099537	19.780114	61.713038	80.921902	-8.127782	3.850190	22.930927	-2.778651	148.506924	-1.315754	-1.388683	4.462185	-21.820262
1.724138	6.195151	1.922281	96.976729	0.128147	0.829286	0.858365	3.872327	2.383843	-10.184319	11.861983	0.207031	34.386239	17.727457	0.000000	5.604259	-1.748074	7.469459	14.898808	0.260033	31.573456	-4.479364	0.000000	-0.024825	0.419631	0.440684	-0.046103	0.558110	0.468227	-0.040785	1.020291	0.468227	-0.028373	1.020291	0.385599	-0.023053	0.855712	0.358056	-0.014185	0.650009	0.330513	-0.177323	4.746953	2.450954	0.000000	0.000000	9.538560	0.799313	-7.717532	15.790265	-19.665200	24.680705	57.958377	84.020655	-8.726937	4.049872	22.623822	-2.298909	143.681658	0.828625	1.738328	4.923483	-21.267733
1.741379	6.225317	1.723908	96.892020	0.127646	0.828303	0.859097	4.145846	2.357111	-10.232281	11.910557	0.207878	34.418940	17.733811	0.000000	5.893147	-1.668667	8.055847	14.980262	0.261455	31.478926	-5.151454	0.000000	-0.017366	0.441043	0.393642	-0.032250	0.586587	0.418245	-0.028530	1.072351	0.418245	-0.019847	1.072351	0.344437	-0.016126	0.899374	0.319834	-0.009923	0.683175	0.295232	-0.124042	4.989163	2.189319	0.000000	0.000000	10.033127	0.419870	-7.029815	17.017087	-19.038800	29.765136	54.544370	87.085152	-9.195904	3.914410	22.144964	-2.082843	137.271830	3.659975	5.595489	5.138546	-20.229240
